HIERARCHY
ROOT root
{
	OFFSET 0.000000 0.000000 0.000000
	CHANNELS 6 Xposition Yposition Zposition Zrotation Yrotation Xrotation
	JOINT lhip
	{
		OFFSET 0.058581 -0.082280 -0.017664
		CHANNELS 3 Zrotation Yrotation Xrotation
		JOINT lknee
		{
			OFFSET 0.043451 -0.386469 0.008037
			CHANNELS 3 Zrotation Yrotation Xrotation
			JOINT lankle
			{
				OFFSET -0.014790 -0.426874 -0.037428
				CHANNELS 3 Zrotation Yrotation Xrotation
				JOINT ltoe
				{
					OFFSET 0.041054 -0.060286 0.122042
					CHANNELS 3 Zrotation Yrotation Xrotation
					End Site
					{
						OFFSET 0.000000 0.000000 0.000000
					}
				}
			}
		}
	}
	JOINT rhip
	{
		OFFSET -0.060310 -0.090513 -0.013543
		CHANNELS 3 Zrotation Yrotation Xrotation
		JOINT rknee
		{
			OFFSET -0.043257 -0.383688 -0.004843
			CHANNELS 3 Zrotation Yrotation Xrotation
			JOINT rankle
			{
				OFFSET 0.019056 -0.420046 -0.034562
				CHANNELS 3 Zrotation Yrotation Xrotation
				JOINT rtoe
				{
					OFFSET -0.034840 -0.062106 0.130323
					CHANNELS 3 Zrotation Yrotation Xrotation
					End Site
					{
						OFFSET 0.000000 0.000000 0.000000
					}
				}
			}
		}
	}
	JOINT lowerback
	{
		OFFSET 0.004439 0.124404 -0.038385
		CHANNELS 3 Zrotation Yrotation Xrotation
		JOINT upperback
		{
			OFFSET 0.004488 0.137956 0.026820
			CHANNELS 3 Zrotation Yrotation Xrotation
			JOINT chest
			{
				OFFSET -0.002265 0.056032 0.002855
				CHANNELS 3 Zrotation Yrotation Xrotation
				JOINT lowerneck
				{
					OFFSET -0.013390 0.211636 -0.033468
					CHANNELS 3 Zrotation Yrotation Xrotation
					JOINT upperneck
					{
						OFFSET 0.010113 0.088937 0.050410
						CHANNELS 3 Zrotation Yrotation Xrotation
						End Site
						{
							OFFSET 0.000000 0.000000 0.000000
						}
					}
				}
				JOINT lclavicle
				{
					OFFSET 0.071702 0.114000 -0.018898
					CHANNELS 3 Zrotation Yrotation Xrotation
					JOINT lshoulder
					{
						OFFSET 0.122921 0.045205 -0.019046
						CHANNELS 3 Zrotation Yrotation Xrotation
						JOINT lelbow
						{
							OFFSET 0.255332 -0.015649 -0.022946
							CHANNELS 3 Zrotation Yrotation Xrotation
							JOINT lwrist
							{
								OFFSET 0.265709 0.012698 -0.007375
								CHANNELS 3 Zrotation Yrotation Xrotation
								End Site
								{
									OFFSET 0.000000 0.000000 0.000000
								}
							}
						}
					}
				}
				JOINT rclavicle
				{
					OFFSET -0.082954 0.112472 -0.023707
					CHANNELS 3 Zrotation Yrotation Xrotation
					JOINT rshoulder
					{
						OFFSET -0.113228 0.046853 -0.008472
						CHANNELS 3 Zrotation Yrotation Xrotation
						JOINT relbow
						{
							OFFSET -0.260127 -0.014369 -0.031269
							CHANNELS 3 Zrotation Yrotation Xrotation
							JOINT rwrist
							{
								OFFSET -0.269108 0.006794 -0.006027
								CHANNELS 3 Zrotation Yrotation Xrotation
								End Site
								{
									OFFSET 0.000000 0.000000 0.000000
								}
							}
						}
					}
				}
			}
		}
	}
}
MOTION
Frames: 10
Frame Time: 0.033333
2.041283 1.315237 1.003677 -88.575690 2.792818 86.807225 1.020192 -0.569047 7.925338 -1.965897 -14.516749 1.120196 6.444729 8.991743 -18.415683 0.000000 -0.000000 0.000000 1.771691 -3.762287 5.749468 3.476954 3.433631 5.707492 2.990582 -4.164345 -14.295399 0.000000 -0.000000 0.000000 -2.223863 2.651706 2.954523 1.597492 -1.734628 1.497225 1.814792 -0.694573 3.521041 5.205923 4.260595 -2.704231 1.968065 -0.054418 6.746078 -24.741788 3.850521 2.343620 -63.657559 -6.848574 9.535230 10.292906 -29.624923 7.219980 -1.882007 -1.323532 -9.470263 22.647697 -2.385770 2.325580 63.029578 2.059580 11.027420 -14.734214 24.877903 -3.077497 6.941899 1.179495 -9.511189 
2.042419 1.315307 1.002939 -88.456271 2.938326 87.234788 1.240466 -0.753442 7.114311 -2.186227 -14.313169 1.554728 6.461285 8.999552 -18.474384 0.000000 -0.000000 0.000000 1.960947 -3.643285 5.068163 3.514545 3.172766 5.982705 2.901625 -4.369149 -14.132925 0.000000 -0.000000 0.000000 -1.978840 2.540897 2.733072 1.628810 -1.668017 0.970656 1.768239 -0.889237 3.621837 5.163680 4.320393 -2.421793 2.028926 0.078689 7.807798 -24.684167 3.765793 2.616244 -63.956406 -7.026742 9.666218 10.561635 -29.885135 6.900608 -1.426698 -1.787659 -10.027432 22.464556 -2.646089 2.304778 63.061902 2.011101 11.265999 -14.646981 25.260096 -2.847747 6.824010 0.897479 -9.966231 
2.044076 1.316681 1.001965 -88.931794 2.941003 87.680478 1.421937 -0.854248 6.478129 -2.398261 -13.837162 1.594879 6.349083 9.026772 -18.479681 0.000000 -0.000000 0.000000 2.046179 -3.020674 4.278915 3.527119 3.013918 6.327895 2.953942 -4.358253 -14.131266 0.000000 -0.000000 0.000000 -2.013614 2.571618 2.360809 1.659855 -1.481690 0.781294 1.763247 -0.778676 3.781802 5.379604 4.135392 -2.568248 2.052069 -0.306033 8.537273 -24.662808 4.022823 2.654513 -64.063245 -7.319880 9.775932 10.816823 -30.253004 5.809140 -0.193237 -3.095057 -10.186293 22.508201 -2.882842 2.284724 63.049299 2.180326 11.518523 -14.667735 25.232847 -2.847493 6.275282 1.033965 -10.034024 
2.044814 1.318390 1.000894 -88.999995 3.119693 87.999436 1.844366 -1.034148 6.003898 -2.663003 -13.615314 1.767602 6.429952 9.095298 -18.296269 0.000000 -0.000000 0.000000 2.406916 -2.691992 3.894556 3.455611 2.928559 6.389894 2.781182 -4.793743 -13.898749 0.000000 -0.000000 0.000000 -1.897648 2.479557 1.942048 1.845681 -1.454924 0.795348 1.728753 -0.864554 3.888742 5.286194 3.720316 -1.968057 2.098199 -0.456619 8.558095 -24.559587 4.115490 2.884364 -64.217800 -7.170710 9.896877 10.759744 -29.858284 6.154441 -0.311080 -2.895226 -10.125426 22.317478 -3.025232 2.350776 63.211399 2.123881 11.594732 -14.662802 25.293789 -2.644064 6.319188 0.919086 -10.303585 
2.044775 1.318399 1.000978 -89.014668 2.986829 87.823448 1.650466 -0.996976 6.204858 -2.594971 -13.704925 1.769238 6.331573 9.119624 -18.247948 0.000000 -0.000000 0.000000 2.198033 -2.757705 4.160334 3.478014 3.022384 6.252188 2.917217 -4.637897 -13.873052 0.000000 -0.000000 0.000000 -1.947150 2.527743 2.166739 1.823486 -1.516291 0.780055 1.715890 -0.891277 3.853086 5.284062 3.311301 -1.511776 2.155851 -0.748973 8.626431 -24.637247 4.285672 2.870123 -64.179221 -7.108963 9.824682 10.737227 -29.295948 6.135600 -0.329435 -2.780724 -9.867415 22.386408 -3.145197 2.268729 63.136932 2.012089 11.520329 -14.544850 25.010868 -2.627933 6.290060 0.862413 -10.145797 
2.044841 1.318696 1.000746 -89.034392 2.930581 87.765946 1.573875 -0.979406 6.219797 -2.558525 -13.674797 1.881837 6.404160 9.184810 -18.266958 0.000000 -0.000000 0.000000 2.129519 -2.661028 4.203011 3.535611 3.050267 6.314765 2.798214 -4.796343 -13.847185 0.000000 -0.000000 0.000000 -1.940857 2.493274 2.038462 1.847168 -1.555151 0.950746 1.667806 -0.917992 3.915835 5.446419 3.384908 -1.247871 2.121995 -0.602169 8.906004 -24.551222 4.279570 3.134523 -64.311412 -6.847251 9.822394 10.838694 -28.256776 6.381622 -0.695444 -2.987761 -9.971785 22.378255 -3.136789 2.344639 63.193629 1.987792 11.528985 -14.578364 24.283309 -2.533484 6.443781 0.719723 -10.283261 
2.045157 1.319257 1.000757 -88.961225 2.995640 87.754583 1.589132 -1.016740 6.055306 -2.444798 -13.740781 2.171484 6.305410 9.200585 -18.400930 0.000000 -0.000000 0.000000 2.253356 -2.557458 4.234985 3.558764 3.047016 6.247155 2.798178 -4.913078 -13.807686 0.000000 -0.000000 0.000000 -1.891957 2.474687 2.080692 1.884816 -1.612541 0.847349 1.725980 -1.031318 3.983755 5.430377 3.317140 -1.028956 2.082506 -0.560290 9.051566 -24.513994 4.339262 3.401219 -64.359778 -6.462986 9.751722 10.871238 -27.149643 6.602924 -0.488489 -3.118019 -9.621273 22.359795 -3.198204 2.531609 63.144244 1.899607 11.417508 -14.451136 23.973587 -2.527137 6.274947 0.745888 -10.452374 
2.045447 1.319730 1.000826 -88.934990 2.977861 87.802540 1.551152 -1.152880 5.917588 -2.410847 -13.808028 2.294494 6.365675 9.350307 -18.394711 0.000000 -0.000000 0.000000 2.276277 -2.476202 4.115537 3.624358 3.121289 6.350103 2.701474 -5.108415 -13.841173 0.000000 -0.000000 0.000000 -1.916090 2.474029 2.031849 1.960293 -1.661674 0.845913 1.720627 -1.108226 4.025871 5.425459 2.809155 -0.738228 1.984508 -1.066931 9.337966 -24.480383 4.468684 3.557203 -64.429341 -6.179659 9.586728 10.839179 -25.523344 6.599640 -1.085722 -2.914591 -9.795923 22.354899 -3.299116 2.584194 63.140589 1.756648 11.422581 -14.497338 23.199621 -2.429304 6.415520 0.793265 -10.566609 
2.045551 1.320065 1.000837 -88.904584 2.913796 87.611233 1.481091 -1.158742 6.063174 -2.416025 -13.936183 2.404959 6.358712 9.433829 -18.421004 0.000000 -0.000000 0.000000 2.225474 -2.494517 4.322104 3.628340 3.095063 6.341648 2.603826 -5.151139 -13.891200 0.000000 -0.000000 0.000000 -1.940391 2.508928 2.261616 1.925085 -1.777140 0.984325 1.749053 -1.100626 3.941411 5.241865 2.256776 0.165119 1.993731 -1.227532 8.896130 -24.354012 4.620053 3.712758 -64.458562 -5.882260 9.095391 10.768901 -24.114175 6.289321 -2.034801 -2.152734 -9.941734 22.267808 -3.315505 2.699267 63.137613 1.649761 11.157459 -14.264204 22.746396 -2.348263 6.875372 0.802094 -10.471481 
2.045167 1.320689 1.000656 -89.115426 2.963859 87.595292 1.552089 -0.994354 6.180372 -2.338691 -14.031988 2.271261 6.390505 9.563340 -18.489412 0.000000 -0.000000 0.000000 2.345624 -2.224460 4.360454 3.637572 3.151789 6.332866 2.546690 -5.243930 -13.834299 0.000000 -0.000000 0.000000 -1.805649 2.419910 2.101316 1.928972 -1.587541 1.076574 1.689701 -1.014162 4.079891 5.599934 2.267303 0.101417 1.994739 -1.094276 9.071513 -24.404439 4.815853 3.849315 -64.350723 -5.420818 8.826394 10.974448 -22.276258 6.286394 -1.835090 -2.125231 -9.344391 22.168186 -3.530070 2.824430 63.216266 1.455731 11.030837 -14.208759 21.869167 -2.406839 6.809365 0.885563 -10.593307 
